Coordinates
version=1
nRows=39
nColumns=30
inDegrees=yes

Units are S.I. units (second, meters, Newtons, ...)
Angles are in degrees.

endheader
time	floatyaw	floatroll	floatpitch	floatx	floaty	floatz	pro_sup_l	deviation_l	flexion_l	cmc_flexion_l	cmc_abduction_l	mp_flexion_l	ip_flexion_l	2mcp_flexion_l	2mcp_abduction_l	2pm_flexion_l	2md_flexion_l	3mcp_flexion_l	3mcp_abduction_l	3pm_flexion_l	3md_flexion_l	4mcp_flexion_l	4mcp_abduction_l	4pm_flexion_l	4md_flexion_l	5mcp_flexion_l	5mcp_abduction_l	5pm_flexion_l	5md_flexion_l
-0.495000	-160.147433	-5.066637	-73.570646	0.081428	-0.181306	-0.017612	102.864364	3.837715	-0.148223	11.309304	10.133988	-26.342775	-41.371747	29.486628	6.948252	43.685910	29.928430	23.384636	4.323701	45.271146	30.253326	12.539733	-4.373487	52.485450	36.400827	1.357885	-8.223943	61.210074	42.465364
-0.485000	-160.147433	-5.066637	-73.570646	0.081421	-0.181297	-0.017638	102.874858	3.837826	-0.139330	11.292343	10.154804	-26.366827	-41.411722	29.478036	6.948234	43.690848	29.927667	23.368487	4.321798	45.279386	30.254936	12.524468	-4.374281	52.493168	36.401001	1.359673	-8.219768	61.182115	42.441816
-0.475000	-160.147433	-5.066637	-73.570646	0.081416	-0.181285	-0.017668	102.882034	3.839277	-0.127201	11.275849	10.188792	-26.392692	-41.449085	29.457885	6.947586	43.698510	29.931373	23.344441	4.318508	45.288373	30.258379	12.503550	-4.376427	52.497698	36.399687	1.348284	-8.216158	61.157444	42.423607
-0.465000	-160.147433	-5.066637	-73.570646	0.081412	-0.181270	-0.017703	102.891943	3.844122	-0.113922	11.262154	10.230764	-26.417631	-41.475186	29.425248	6.947129	43.708948	29.941518	23.315830	4.314319	45.296153	30.263546	12.479450	-4.378113	52.495823	36.395680	1.328809	-8.214258	61.139045	42.412864
-0.455000	-160.147433	-5.066637	-73.570646	0.081410	-0.181255	-0.017743	102.908817	3.853142	-0.102375	11.252914	10.271722	-26.440265	-41.486922	29.382123	6.947404	43.723748	29.959704	23.285865	4.310421	45.301731	30.270451	12.453908	-4.377760	52.488394	36.389283	1.307683	-8.214886	61.128898	42.409584
-0.445000	-160.147433	-5.066637	-73.570646	0.081409	-0.181240	-0.017790	102.933485	3.865786	-0.095079	11.247501	10.303441	-26.459135	-41.485825	29.334189	6.948339	43.745355	29.985981	23.257711	4.308063	45.305094	30.278864	12.428560	-4.374676	52.479245	36.381888	1.290261	-8.218047	61.127130	42.411732
-0.435000	-160.147433	-5.066637	-73.570646	0.081407	-0.181228	-0.017845	102.963098	3.880469	-0.092994	11.242891	10.323447	-26.472016	-41.475446	29.289645	6.949183	43.775563	30.018345	23.234633	4.307811	45.306608	30.287885	12.405201	-4.369411	52.473122	36.375392	1.279100	-8.222788	61.131398	42.416124
-0.425000	-160.147433	-5.066637	-73.570646	0.081403	-0.181219	-0.017906	102.992491	3.895054	-0.095052	11.235244	10.336722	-26.476564	-41.459012	29.256153	6.948940	43.813623	30.053001	23.219507	4.309091	45.306495	30.295989	12.385469	-4.363640	52.473588	36.371618	1.273711	-8.227384	61.136761	42.419507
-0.415000	-160.147433	-5.066637	-73.570646	0.081396	-0.181209	-0.017974	103.016768	3.907357	-0.098938	11.222122	10.352624	-26.471754	-41.438815	29.237452	6.947321	43.854786	30.084931	23.213738	4.310271	45.305187	30.301788	12.370449	-4.359562	52.481659	36.371710	1.271773	-8.229847	61.136780	42.419459
-0.405000	-160.147433	-5.066637	-73.570646	0.081389	-0.181200	-0.018049	103.034207	3.915668	-0.102723	11.204015	10.378803	-26.458938	-41.417285	29.231668	6.945825	43.890072	30.108400	23.216330	4.309254	45.304399	30.304985	12.360803	-4.358956	52.495466	36.375469	1.270862	-8.228798	61.126550	42.415234
-0.395000	-160.147433	-5.066637	-73.570646	0.081383	-0.181188	-0.018130	103.048688	3.919515	-0.106107	11.184394	10.415756	-26.441619	-41.398189	29.232398	6.948123	43.907861	30.117565	23.223879	4.304356	45.307782	30.306748	12.357502	-4.362293	52.510906	36.380844	1.269540	-8.224372	61.107113	42.408760
-0.385000	-160.147433	-5.066637	-73.570646	0.081381	-0.181174	-0.018219	103.071078	3.920605	-0.110139	11.168432	10.455211	-26.423811	-41.386159	29.231879	6.958984	43.897649	30.107886	23.231547	4.295152	45.320176	30.309154	12.362559	-4.368454	52.523248	36.384124	1.267272	-8.218531	61.088602	42.405134
-0.375000	-160.147433	-5.066637	-73.570646	0.081380	-0.181150	-0.018323	103.118814	3.923342	-0.115482	11.161078	10.483225	-26.407800	-41.384032	29.224142	6.981796	43.855505	30.078666	23.234440	4.282962	45.345377	30.314017	12.378777	-4.375445	52.529397	36.381240	1.263538	-8.214241	61.088552	42.411365
-0.365000	-160.147433	-5.066637	-73.570646	0.081375	-0.181109	-0.018458	103.212839	3.934088	-0.120440	11.165393	10.486200	-26.392707	-41.389727	29.206120	7.015868	43.788906	30.035634	23.228928	4.270634	45.383101	30.321545	12.408058	-4.381886	52.529760	36.369805	1.256955	-8.213739	61.124074	42.432917
-0.355000	-160.147433	-5.066637	-73.570646	0.081359	-0.181035	-0.018647	103.372101	3.959277	-0.120235	11.181792	10.456655	-26.375123	-41.395735	29.176292	7.055402	43.717115	29.991138	23.213771	4.261429	45.426298	30.329142	12.449098	-4.388313	52.527990	36.350565	1.245029	-8.216993	61.201207	42.469628
-0.345000	-160.147433	-5.066637	-73.570646	0.081327	-0.180917	-0.018921	103.607612	4.003914	-0.108183	11.208263	10.396570	-26.351998	-41.393159	29.132411	7.091296	43.664614	29.960149	23.190878	4.257424	45.460502	30.330865	12.496165	-4.397166	52.527889	36.327049	1.224872	-8.221526	61.308197	42.513841
-0.335000	-160.147433	-5.066637	-73.570646	0.081273	-0.180744	-0.019314	103.918994	4.072331	-0.078216	11.241051	10.318069	-26.324395	-41.378785	29.070683	7.114942	43.649898	29.953234	23.165160	4.258317	45.466662	30.318263	12.540374	-4.411135	52.529281	36.303488	1.194702	-8.223803	61.418226	42.552654
-0.325000	-160.147433	-5.066637	-73.570646	0.081188	-0.180503	-0.019860	104.294847	4.171359	-0.027439	11.275149	10.241997	-26.299807	-41.360640	28.987512	7.121599	43.676553	29.970881	23.143138	4.261528	45.427210	30.282836	12.573279	-4.430748	52.526210	36.282381	1.155239	-8.220945	61.501077	42.573397
-0.315000	-160.147433	-5.066637	-73.570646	0.081062	-0.180183	-0.020590	104.715372	4.313921	0.042364	11.304326	10.194010	-26.291283	-41.357610	28.882553	7.111285	43.733428	30.003658	23.130743	4.263605	45.332930	30.219316	12.591035	-4.452703	52.509174	36.263089	1.109565	-8.211082	61.536803	42.569184
-0.305000	-160.147433	-5.066637	-73.570646	0.080869	-0.179761	-0.021534	105.154537	4.520586	0.124517	11.321064	10.197072	-26.313217	-41.392036	28.760394	7.087033	43.804381	30.038909	23.131299	4.262119	45.187396	30.128283	12.596721	-4.470071	52.469756	36.241915	1.060629	-8.191799	61.523296	42.541452
-0.295000	-160.147433	-5.066637	-73.570646	0.080569	-0.179211	-0.022721	105.581047	4.818417	0.207850	11.317016	10.261173	-26.375315	-41.478376	28.629139	7.052192	43.880439	30.069559	23.144468	4.256888	45.006919	30.016964	12.599184	-4.474379	52.404458	36.213388	1.007643	-8.157812	61.474357	42.498581
-0.285000	-160.147433	-5.066637	-73.570646	0.080108	-0.178495	-0.024184	105.960415	5.238103	0.276773	11.284047	10.374917	-26.477068	-41.613307	28.496428	7.008529	43.964871	30.098680	23.166376	4.249729	44.815828	29.897760	12.608724	-4.458551	52.315599	36.172258	0.944633	-8.099959	61.410718	42.451636
-0.275000	-160.147433	-5.066637	-73.570646	0.079420	-0.177567	-0.025951	106.260849	5.810479	0.310255	11.214879	10.505956	-26.604728	-41.771781	28.365346	6.955781	44.066838	30.136183	23.190863	4.242721	44.638257	29.784632	12.632383	-4.419137	52.208350	36.115219	0.864239	-8.007162	61.348822	42.408873
-0.265000	-160.147433	-5.066637	-73.570646	0.078436	-0.176375	-0.028049	106.462394	6.562611	0.279379	11.102097	10.614937	-26.731862	-41.910544	28.233301	6.892134	44.187423	30.189100	23.211953	4.235836	44.488749	29.688072	12.672815	-4.356697	52.083572	36.040932	0.766890	-7.871638	61.291377	42.370562
-0.255000	-160.147433	-5.066637	-73.570646	0.077087	-0.174857	-0.030492	106.564925	7.513466	0.144072	10.935620	10.681091	-26.823723	-41.977858	28.095877	6.815146	44.306693	30.250747	23.227540	4.225377	44.364610	29.610054	12.733252	-4.274385	51.927644	35.947555	0.671363	-7.696105	61.222025	42.325800
-0.245000	-160.147433	-5.066637	-73.570646	0.075317	-0.172948	-0.033282	106.590262	8.670075	-0.148721	10.700921	10.729972	-26.845074	-41.927092	27.954563	6.723057	44.379658	30.294717	23.243407	4.204427	44.242647	29.540616	12.826925	-4.176003	51.703501	35.828886	0.620333	-7.500157	61.105234	42.252726
-0.235000	-160.147433	-5.066637	-73.570646	0.073081	-0.170585	-0.036414	106.577189	10.025885	-0.661922	10.381076	10.848843	-26.770235	-41.731551	27.823558	6.616370	44.344716	30.277888	23.275323	4.165554	44.082060	29.457742	12.985051	-4.065100	51.349506	35.671918	0.675750	-7.321559	60.892060	42.122985
-0.225000	-160.147433	-5.066637	-73.570646	0.070345	-0.167712	-0.039878	106.571452	11.562498	-1.458096	9.963789	11.176110	-26.592829	-41.396775	27.730040	6.499044	44.143628	30.153710	23.346603	4.104829	43.835216	29.332488	13.256234	-3.945837	50.792719	35.459131	0.903229	-7.208092	60.532606	41.910516
-0.215000	-160.147433	-5.066637	-73.570646	0.067089	-0.164290	-0.043662	106.613820	13.254134	-2.584116	9.450910	11.860268	-26.331485	-40.964678	27.706182	6.378434	43.748137	29.893349	23.480700	4.025286	43.467612	29.140849	13.693388	-3.825167	49.979395	35.177768	1.350159	-7.198809	59.994863	41.603610
-0.205000	-160.147433	-5.066637	-73.570646	0.063302	-0.160310	-0.047751	106.729904	15.072410	-4.057417	8.865254	13.000043	-26.026765	-40.503457	27.777068	6.263628	43.184194	29.507534	23.691957	3.937670	42.983993	28.880765	14.331054	-3.714748	48.916516	34.834972	2.027244	-7.300686	59.285043	41.216599
-0.195000	-160.147433	-5.066637	-73.570646	0.058981	-0.155806	-0.052120	106.927216	16.989100	-5.862343	8.250006	14.594062	-25.725687	-40.081106	27.951090	6.162578	42.541197	29.057908	23.979142	3.857081	42.449288	28.587042	15.162826	-3.630484	47.705299	34.471905	2.904754	-7.473717	58.458350	40.794475
-0.185000	-160.147433	-5.066637	-73.570646	0.054123	-0.150863	-0.056720	107.204270	18.976117	-7.961244	7.659843	16.533004	-25.455791	-39.730591	28.215377	6.079005	41.955237	28.647165	24.322957	3.796305	41.987227	28.332803	16.130253	-3.588364	46.540361	34.165512	3.928141	-7.637382	57.608490	40.403738
-0.175000	-160.147433	-5.066637	-73.570646	0.048716	-0.145614	-0.061480	107.569978	21.002744	-10.315684	7.148294	18.649416	-25.200312	-39.426935	28.531347	6.009885	41.565650	28.385310	24.682504	3.759000	41.744748	28.208884	17.127734	-3.597520	45.658193	34.008726	5.041931	-7.700268	56.834225	40.108570
-0.165000	-160.147433	-5.066637	-73.570646	0.042728	-0.140223	-0.066322	108.063125	23.029585	-12.903367	6.759743	20.803846	-24.891653	-39.098122	28.822963	5.943516	41.459339	28.342162	24.983966	3.736530	41.827468	28.283133	18.016846	-3.653794	45.245160	34.070020	6.196879	-7.598213	56.197147	39.940205
-0.155000	-160.147433	-5.066637	-73.570646	0.036113	-0.134870	-0.071172	108.759863	24.999469	-15.714709	6.533550	22.953983	-24.432855	-38.673207	28.959062	5.857638	41.627284	28.506239	25.103848	3.710143	42.231469	28.555018	18.639620	-3.737650	45.342229	34.346360	7.321471	-7.318007	55.694006	39.872967
-0.145000	-160.147433	-5.066637	-73.570646	0.028834	-0.129748	-0.075978	109.764373	26.829522	-18.723794	6.519914	25.155528	-23.739397	-38.142077	28.746104	5.718520	41.955740	28.772118	24.864790	3.657354	42.807356	28.929540	18.829806	-3.818518	45.793836	34.732927	8.269666	-6.892540	55.262233	39.820327
-0.135000	-160.147433	-5.066637	-73.570646	0.020900	-0.125077	-0.080700	111.187314	28.413152	-21.846237	6.794347	27.486940	-22.781825	-37.588520	27.953518	5.485038	42.263300	28.972283	24.068830	3.560279	43.287417	29.232951	18.434486	-3.864692	46.277701	35.033835	8.791356	-6.374509	54.823139	39.660451
-0.125000	-160.147433	-5.066637	-73.570646	0.012385	-0.121097	-0.085303	113.119988	29.640572	-24.909220	7.448400	29.946037	-21.612485	-37.175591	26.380549	5.122984	42.380651	28.956871	22.578160	3.414402	43.386738	29.279968	17.358868	-3.855462	46.427116	35.028192	8.578776	-5.812400	54.351700	39.293729
-0.115000	-160.147433	-5.066637	-73.570646	0.003432	-0.118034	-0.089753	115.607081	30.437692	-27.657193	8.541272	32.390086	-20.369076	-37.092602	23.948227	4.630464	42.254367	28.704718	20.421187	3.236627	42.958238	28.980160	15.630049	-3.790886	46.021888	34.584047	7.406274	-5.250326	53.948009	38.721550
